<svg width="238" height="74" viewBox="0 0 238 74" fill="none" xmlns="http://www.w3.org/2000/svg">
<rect y="47" width="75" height="23" fill="#FFB923"/>
<rect y="33" width="35" height="10" fill="#FFB923"/>
<rect x="17" y="19" width="35" height="10" fill="#FFB923"/>
<rect x="40" y="5" width="35" height="10" fill="#FFB923"/>
<rect x="38" y="33" width="24" height="10" fill="#FFB923"/>
<rect x="55" y="19" width="20" height="10" fill="#FFB923"/>
<rect y="5" width="34" height="10" fill="#FFB923"/>
<rect y="19" width="14" height="10" fill="#FFB923"/>
<rect x="65" y="33" width="10" height="10" fill="#FFB923"/>
<path d="M95.16 11.76V33H88.5V11.76H95.16ZM114.848 11.76V17.04H109.208V33H102.548V17.04H96.968V11.76H114.848ZM130.274 29.79H123.194L122.144 33H115.154L122.924 11.76H130.604L138.344 33H131.324L130.274 29.79ZM128.654 24.78L126.734 18.87L124.814 24.78H128.654Z" fill="white"/>
<path d="M88.11 51.53C88.11 49.49 88.58 47.66 89.52 46.04C90.48 44.42 91.77 43.16 93.39 42.26C95.03 41.34 96.82 40.88 98.76 40.88C100.98 40.88 102.95 41.43 104.67 42.53C106.41 43.61 107.67 45.15 108.45 47.15H104.34C103.8 46.05 103.05 45.23 102.09 44.69C101.13 44.15 100.02 43.88 98.76 43.88C97.38 43.88 96.15 44.19 95.07 44.81C93.99 45.43 93.14 46.32 92.52 47.48C91.92 48.64 91.62 49.99 91.62 51.53C91.62 53.07 91.92 54.42 92.52 55.58C93.14 56.74 93.99 57.64 95.07 58.28C96.15 58.9 97.38 59.21 98.76 59.21C100.02 59.21 101.13 58.94 102.09 58.4C103.05 57.86 103.8 57.04 104.34 55.94H108.45C107.67 57.94 106.41 59.48 104.67 60.56C102.95 61.64 100.98 62.18 98.76 62.18C96.8 62.18 95.01 61.73 93.39 60.83C91.77 59.91 90.48 58.64 89.52 57.02C88.58 55.4 88.11 53.57 88.11 51.53ZM127.603 53.33C127.603 53.95 127.563 54.51 127.483 55.01H114.853C114.953 56.33 115.443 57.39 116.323 58.19C117.203 58.99 118.283 59.39 119.563 59.39C121.403 59.39 122.703 58.62 123.463 57.08H127.153C126.653 58.6 125.743 59.85 124.423 60.83C123.123 61.79 121.503 62.27 119.563 62.27C117.983 62.27 116.563 61.92 115.303 61.22C114.063 60.5 113.083 59.5 112.363 58.22C111.663 56.92 111.313 55.42 111.313 53.72C111.313 52.02 111.653 50.53 112.333 49.25C113.033 47.95 114.003 46.95 115.243 46.25C116.503 45.55 117.943 45.2 119.563 45.2C121.123 45.2 122.513 45.54 123.733 46.22C124.953 46.9 125.903 47.86 126.583 49.1C127.263 50.32 127.603 51.73 127.603 53.33ZM124.033 52.25C124.013 50.99 123.563 49.98 122.683 49.22C121.803 48.46 120.713 48.08 119.413 48.08C118.233 48.08 117.223 48.46 116.383 49.22C115.543 49.96 115.043 50.97 114.883 52.25H124.033ZM134.389 47.87C134.889 47.03 135.549 46.38 136.369 45.92C137.209 45.44 138.199 45.2 139.339 45.2V48.74H138.469C137.129 48.74 136.109 49.08 135.409 49.76C134.729 50.44 134.389 51.62 134.389 53.3V62H130.969V45.47H134.389V47.87ZM141.342 53.66C141.342 52 141.682 50.53 142.362 49.25C143.062 47.97 144.002 46.98 145.182 46.28C146.382 45.56 147.702 45.2 149.142 45.2C150.442 45.2 151.572 45.46 152.532 45.98C153.512 46.48 154.292 47.11 154.872 47.87V45.47H158.322V62H154.872V59.54C154.292 60.32 153.502 60.97 152.502 61.49C151.502 62.01 150.362 62.27 149.082 62.27C147.662 62.27 146.362 61.91 145.182 61.19C144.002 60.45 143.062 59.43 142.362 58.13C141.682 56.81 141.342 55.32 141.342 53.66ZM154.872 53.72C154.872 52.58 154.632 51.59 154.152 50.75C153.692 49.91 153.082 49.27 152.322 48.83C151.562 48.39 150.742 48.17 149.862 48.17C148.982 48.17 148.162 48.39 147.402 48.83C146.642 49.25 146.022 49.88 145.542 50.72C145.082 51.54 144.852 52.52 144.852 53.66C144.852 54.8 145.082 55.8 145.542 56.66C146.022 57.52 146.642 58.18 147.402 58.64C148.182 59.08 149.002 59.3 149.862 59.3C150.742 59.3 151.562 59.08 152.322 58.64C153.082 58.2 153.692 57.56 154.152 56.72C154.632 55.86 154.872 54.86 154.872 53.72ZM182.824 45.2C184.124 45.2 185.284 45.47 186.304 46.01C187.344 46.55 188.154 47.35 188.734 48.41C189.334 49.47 189.634 50.75 189.634 52.25V62H186.244V52.76C186.244 51.28 185.874 50.15 185.134 49.37C184.394 48.57 183.384 48.17 182.104 48.17C180.824 48.17 179.804 48.57 179.044 49.37C178.304 50.15 177.934 51.28 177.934 52.76V62H174.544V52.76C174.544 51.28 174.174 50.15 173.434 49.37C172.694 48.57 171.684 48.17 170.404 48.17C169.124 48.17 168.104 48.57 167.344 49.37C166.604 50.15 166.234 51.28 166.234 52.76V62H162.814V45.47H166.234V47.36C166.794 46.68 167.504 46.15 168.364 45.77C169.224 45.39 170.144 45.2 171.124 45.2C172.444 45.2 173.624 45.48 174.664 46.04C175.704 46.6 176.504 47.41 177.064 48.47C177.564 47.47 178.344 46.68 179.404 46.1C180.464 45.5 181.604 45.2 182.824 45.2ZM195.726 43.28C195.106 43.28 194.586 43.07 194.166 42.65C193.746 42.23 193.536 41.71 193.536 41.09C193.536 40.47 193.746 39.95 194.166 39.53C194.586 39.11 195.106 38.9 195.726 38.9C196.326 38.9 196.836 39.11 197.256 39.53C197.676 39.95 197.886 40.47 197.886 41.09C197.886 41.71 197.676 42.23 197.256 42.65C196.836 43.07 196.326 43.28 195.726 43.28ZM197.406 45.47V62H193.986V45.47H197.406ZM200.756 53.72C200.756 52.02 201.096 50.53 201.776 49.25C202.476 47.95 203.436 46.95 204.656 46.25C205.876 45.55 207.276 45.2 208.856 45.2C210.856 45.2 212.506 45.68 213.806 46.64C215.126 47.58 216.016 48.93 216.476 50.69H212.786C212.486 49.87 212.006 49.23 211.346 48.77C210.686 48.31 209.856 48.08 208.856 48.08C207.456 48.08 206.336 48.58 205.496 49.58C204.676 50.56 204.266 51.94 204.266 53.72C204.266 55.5 204.676 56.89 205.496 57.89C206.336 58.89 207.456 59.39 208.856 59.39C210.836 59.39 212.146 58.52 212.786 56.78H216.476C215.996 58.46 215.096 59.8 213.776 60.8C212.456 61.78 210.816 62.27 208.856 62.27C207.276 62.27 205.876 61.92 204.656 61.22C203.436 60.5 202.476 59.5 201.776 58.22C201.096 56.92 200.756 55.42 200.756 53.72ZM218.745 53.66C218.745 52 219.085 50.53 219.765 49.25C220.465 47.97 221.405 46.98 222.585 46.28C223.785 45.56 225.105 45.2 226.545 45.2C227.845 45.2 228.975 45.46 229.935 45.98C230.915 46.48 231.695 47.11 232.275 47.87V45.47H235.725V62H232.275V59.54C231.695 60.32 230.905 60.97 229.905 61.49C228.905 62.01 227.765 62.27 226.485 62.27C225.065 62.27 223.765 61.91 222.585 61.19C221.405 60.45 220.465 59.43 219.765 58.13C219.085 56.81 218.745 55.32 218.745 53.66ZM232.275 53.72C232.275 52.58 232.035 51.59 231.555 50.75C231.095 49.91 230.485 49.27 229.725 48.83C228.965 48.39 228.145 48.17 227.265 48.17C226.385 48.17 225.565 48.39 224.805 48.83C224.045 49.25 223.425 49.88 222.945 50.72C222.485 51.54 222.255 52.52 222.255 53.66C222.255 54.8 222.485 55.8 222.945 56.66C223.425 57.52 224.045 58.18 224.805 58.64C225.585 59.08 226.405 59.3 227.265 59.3C228.145 59.3 228.965 59.08 229.725 58.64C230.485 58.2 231.095 57.56 231.555 56.72C232.035 55.86 232.275 54.86 232.275 53.72Z" fill="white"/>
</svg>
